# xmcd
#
# Track frame offsets:
#	151
#	17611
#	38972
#	58669
#	82592
#	105722
#	127068
#	151189
#	170448
#	193043
#	207204
#	226788
#	249248
#	266040
#	296885
#
# Disc length: 4210
#
# Revision: 1
# Processed by: cddbd v1.5.1PL0 Copyright (c) Steve Scherf et al.
# Submitted via: CDex 1.50beta8
# Normalized: r0:TDELIM( - )
#
DISCID=c610700f
DTITLE=Various Artist - Blues Way Volyme 6
DYEAR=1900
DGENRE=Blues
TTITLE0=Junior Wells - Why are People Like That?
TTITLE1=Terry Evans - Credit Card Blues
TTITLE2=Maria Muldaur - Misery and The Blues
TTITLE3=Sugar Ray Norda and Charlie Musselwhite - Life Will Be Better
TTITLE4=Luthe "Guitar" Junior Johnson - So Mean to Me
TTITLE5=Debbie Davies and Kenny Neal - Money
TTITLE6=Son Seals - Love Had a Breakdown
TTITLE7=Kenny Neal - Killed the Groose That Laid The Golden Egg
TTITLE8=Lady Blanca - How Do I Tell My Little Sister?
TTITLE9=Sam Lay - Somebody Gotta Do It
TTITLE10=Willie Dixon Tribute - If The Sea Was Whiskey
TTITLE11=John Primer - Brutal Hearted Woman
TTITLE12=Marty Grebb - Hen House
TTITLE13=Snakebite - Please Don`t Dog Me
TTITLE14=B.B. King and Eric Clapton - Come Rain or Come Shine
EXTD=
EXTT0=
EXTT1=
EXTT2=
EXTT3=
EXTT4=
EXTT5=
EXTT6=
EXTT7=
EXTT8=
EXTT9=
EXTT10=
EXTT11=
EXTT12=
EXTT13=
EXTT14=
PLAYORDER=
